<svg
  viewBox="0 0 24 24"
  xmlns="http://www.w3.org/2000/svg"
>
  <path
    id="cup"
    d="M11.0152 1.9989C10.7595 1.9989 10.4928 2.08491 10.2971 2.27991C10.1412 2.43691 10.2321 2.3949 9.67279 2.8429C8.68096 3.6379 8.2235 4.4539 8.08067 5.9989C7.09883 5.9989 5.11815 5.9989 5.02226 5.9989C4.47091 5.9989 4.02344 6.4469 4.02344 6.9989V13.8739C4.02344 16.5359 5.48771 18.8189 7.48835 19.9989H6.02109C5.46973 19.9989 5.02226 20.4469 5.02226 20.9989C5.02226 21.5509 5.46973 21.9989 6.02109 21.9989H18.007C18.5583 21.9989 19.0058 21.5509 19.0058 20.9989C19.0058 20.4469 18.5583 19.9989 18.007 19.9989H16.5087C18.6173 18.7529 20.0046 16.4299 20.0046 13.9989C22.211 13.9989 23.9999 12.2079 23.9999 9.9989C23.9999 7.7899 22.211 5.9989 20.0046 5.9989C19.0917 5.9989 19.2555 5.9989 19.0058 5.9989C18.9748 5.9989 18.1578 5.9989 18.007 5.9989C17.5675 5.9989 16.1971 5.9989 15.1044 5.9989C15.1923 5.2229 15.3581 4.82691 15.8845 4.40491C16.5347 3.88391 16.4918 3.9529 16.7275 3.7179C17.117 3.3269 17.117 2.67091 16.7275 2.27991C16.5317 2.08491 16.265 1.9989 16.0093 1.9989C15.7536 1.9989 15.4869 2.08491 15.2912 2.27991C15.1354 2.43691 15.2263 2.3949 14.6669 2.8429C13.6821 3.6319 13.2496 4.4739 13.1067 5.9989C11.7663 5.9989 11.3818 5.9989 10.1103 5.9989C10.2002 5.2129 10.359 4.83091 10.8904 4.40491C11.5406 3.88391 11.4976 3.9529 11.7334 3.7179C12.1229 3.3269 12.1229 2.67091 11.7334 2.27991C11.5376 2.08491 11.2709 1.9989 11.0152 1.9989ZM6.02109 7.9989C7.83695 7.9989 16.1911 7.9989 18.007 7.9989V13.8739C18.007 16.6979 15.7087 18.9989 12.888 18.9989H11.1401C8.31938 18.9989 6.02109 16.6979 6.02109 13.8739V7.9989ZM20.0046 7.9989C21.1083 7.9989 22.0023 8.8939 22.0023 9.9989C22.0023 11.1039 21.1083 11.9989 20.0046 11.9989V7.9989Z"
  />
  <style>
    #cup {
      fill: #000;
    }
    @media (prefers-color-scheme: dark) {
      #cup {
        fill: #fff;
      }
    }
  </style>
</svg>